<svg width="53" height="30" viewBox="0 0 53 30" fill="none" xmlns="http://www.w3.org/2000/svg">
<mask id="path-1-inside-1_4002_399" fill="white">
<path fill-rule="evenodd" clip-rule="evenodd" d="M34.2795 29.9401C37.8577 25.4224 39.9942 19.7107 39.9942 13.5C39.9942 8.56964 38.6478 3.95376 36.3026 0H53V29.9401H34.2795Z"/>
</mask>
<path d="M34.2795 29.9401L33.8876 29.6297L33.2457 30.4401H34.2795V29.9401ZM36.3026 0V-0.5H35.4246L35.8725 0.255084L36.3026 0ZM53 0H53.5V-0.5H53V0ZM53 29.9401V30.4401H53.5V29.9401H53ZM39.4942 13.5C39.4942 19.594 37.3983 25.1971 33.8876 29.6297L34.6715 30.2506C38.3171 25.6476 40.4942 19.8274 40.4942 13.5H39.4942ZM35.8725 0.255084C38.1732 4.13377 39.4942 8.66185 39.4942 13.5H40.4942C40.4942 8.47743 39.1224 3.77375 36.7326 -0.255084L35.8725 0.255084ZM36.3026 0.5H53V-0.5H36.3026V0.5ZM52.5 0V29.9401H53.5V0H52.5ZM53 29.4401H34.2795V30.4401H53V29.4401Z" fill="white" mask="url(#path-1-inside-1_4002_399)"/>
<path d="M0.32 13.46C0.32 12.7667 0.463333 12.15 0.75 11.61C1.04333 11.0633 1.45667 10.64 1.99 10.34C2.52333 10.0333 3.13667 9.88 3.83 9.88C4.71 9.88 5.45 10.1167 6.05 10.59C6.65 11.0567 7.03667 11.6933 7.21 12.5H5.1C4.97333 12.2333 4.79667 12.03 4.57 11.89C4.35 11.75 4.09333 11.68 3.8 11.68C3.34667 11.68 2.98333 11.8433 2.71 12.17C2.44333 12.49 2.31 12.92 2.31 13.46C2.31 14.0067 2.44333 14.4433 2.71 14.77C2.98333 15.09 3.34667 15.25 3.8 15.25C4.09333 15.25 4.35 15.18 4.57 15.04C4.79667 14.9 4.97333 14.6967 5.1 14.43H7.21C7.03667 15.2367 6.65 15.8767 6.05 16.35C5.45 16.8167 4.71 17.05 3.83 17.05C3.13667 17.05 2.52333 16.9 1.99 16.6C1.45667 16.2933 1.04333 15.87 0.75 15.33C0.463333 14.7833 0.32 14.16 0.32 13.46ZM7.81813 14.19C7.81813 13.61 7.92146 13.1033 8.12813 12.67C8.34146 12.2367 8.62813 11.9033 8.98813 11.67C9.35479 11.4367 9.76146 11.32 10.2081 11.32C10.5948 11.32 10.9281 11.3967 11.2081 11.55C11.4881 11.7033 11.7048 11.91 11.8581 12.17V11.39H13.8181V17H11.8581V16.22C11.7048 16.48 11.4848 16.6867 11.1981 16.84C10.9181 16.9933 10.5881 17.07 10.2081 17.07C9.76146 17.07 9.35479 16.9533 8.98813 16.72C8.62813 16.4867 8.34146 16.1533 8.12813 15.72C7.92146 15.28 7.81813 14.77 7.81813 14.19ZM11.8581 14.19C11.8581 13.83 11.7581 13.5467 11.5581 13.34C11.3648 13.1333 11.1248 13.03 10.8381 13.03C10.5448 13.03 10.3015 13.1333 10.1081 13.34C9.91479 13.54 9.81813 13.8233 9.81813 14.19C9.81813 14.55 9.91479 14.8367 10.1081 15.05C10.3015 15.2567 10.5448 15.36 10.8381 15.36C11.1248 15.36 11.3648 15.2567 11.5581 15.05C11.7581 14.8433 11.8581 14.5567 11.8581 14.19ZM15.925 10.87C15.5783 10.87 15.2983 10.7767 15.085 10.59C14.8783 10.3967 14.775 10.1567 14.775 9.87C14.775 9.57667 14.8783 9.33333 15.085 9.14C15.2983 8.94667 15.5783 8.85 15.925 8.85C16.265 8.85 16.5383 8.94667 16.745 9.14C16.9583 9.33333 17.065 9.57667 17.065 9.87C17.065 10.1567 16.9583 10.3967 16.745 10.59C16.5383 10.7767 16.265 10.87 15.925 10.87ZM16.895 11.39V17H14.935V11.39H16.895ZM20.6212 17.07C20.0612 17.07 19.5578 16.9533 19.1112 16.72C18.6712 16.4867 18.3245 16.1533 18.0712 15.72C17.8178 15.2867 17.6912 14.7767 17.6912 14.19C17.6912 13.61 17.8178 13.1033 18.0712 12.67C18.3312 12.2367 18.6812 11.9033 19.1212 11.67C19.5678 11.4367 20.0712 11.32 20.6312 11.32C21.1912 11.32 21.6912 11.4367 22.1312 11.67C22.5778 11.9033 22.9278 12.2367 23.1812 12.67C23.4412 13.1033 23.5712 13.61 23.5712 14.19C23.5712 14.77 23.4412 15.28 23.1812 15.72C22.9278 16.1533 22.5778 16.4867 22.1312 16.72C21.6845 16.9533 21.1812 17.07 20.6212 17.07ZM20.6212 15.37C20.8945 15.37 21.1212 15.27 21.3012 15.07C21.4878 14.8633 21.5812 14.57 21.5812 14.19C21.5812 13.81 21.4878 13.52 21.3012 13.32C21.1212 13.12 20.8978 13.02 20.6312 13.02C20.3645 13.02 20.1412 13.12 19.9612 13.32C19.7812 13.52 19.6912 13.81 19.6912 14.19C19.6912 14.5767 19.7778 14.87 19.9512 15.07C20.1245 15.27 20.3478 15.37 20.6212 15.37ZM27.1586 9.95C27.8986 9.95 28.5453 10.1 29.0986 10.4C29.6586 10.6933 30.0886 11.1067 30.3886 11.64C30.6886 12.1733 30.8386 12.7833 30.8386 13.47C30.8386 14.15 30.6853 14.7567 30.3786 15.29C30.0786 15.8233 29.6486 16.2433 29.0886 16.55C28.5353 16.85 27.8919 17 27.1586 17H24.3686V9.95H27.1586ZM27.0086 15.27C27.5819 15.27 28.0319 15.1133 28.3586 14.8C28.6853 14.4867 28.8486 14.0433 28.8486 13.47C28.8486 12.89 28.6853 12.4433 28.3586 12.13C28.0319 11.81 27.5819 11.65 27.0086 11.65H26.3286V15.27H27.0086ZM37.0821 14.13C37.0821 14.2833 37.0721 14.4367 37.0521 14.59H33.3421C33.3621 14.8967 33.4454 15.1267 33.5921 15.28C33.7454 15.4267 33.9388 15.5 34.1721 15.5C34.4988 15.5 34.7321 15.3533 34.8721 15.06H36.9621C36.8754 15.4467 36.7054 15.7933 36.4521 16.1C36.2054 16.4 35.8921 16.6367 35.5121 16.81C35.1321 16.9833 34.7121 17.07 34.2521 17.07C33.6988 17.07 33.2054 16.9533 32.7721 16.72C32.3454 16.4867 32.0088 16.1533 31.7621 15.72C31.5221 15.2867 31.4021 14.7767 31.4021 14.19C31.4021 13.6033 31.5221 13.0967 31.7621 12.67C32.0021 12.2367 32.3354 11.9033 32.7621 11.67C33.1954 11.4367 33.6921 11.32 34.2521 11.32C34.8054 11.32 35.2954 11.4333 35.7221 11.66C36.1488 11.8867 36.4821 12.2133 36.7221 12.64C36.9621 13.06 37.0821 13.5567 37.0821 14.13ZM35.0821 13.64C35.0821 13.4 35.0021 13.2133 34.8421 13.08C34.6821 12.94 34.4821 12.87 34.2421 12.87C34.0021 12.87 33.8054 12.9367 33.6521 13.07C33.4988 13.1967 33.3988 13.3867 33.3521 13.64H35.0821ZM40.5742 15.15L41.6242 11.39H43.7142L41.7842 17H39.3442L37.4142 11.39H39.5042L40.5742 15.15ZM45.3284 17.08C44.9817 17.08 44.7017 16.9867 44.4884 16.8C44.2817 16.6067 44.1784 16.3633 44.1784 16.07C44.1784 15.7767 44.2817 15.5333 44.4884 15.34C44.7017 15.1467 44.9817 15.05 45.3284 15.05C45.6684 15.05 45.9417 15.1467 46.1484 15.34C46.3617 15.5333 46.4684 15.7767 46.4684 16.07C46.4684 16.3567 46.3617 16.5967 46.1484 16.79C45.9417 16.9833 45.6684 17.08 45.3284 17.08Z" fill="white"/>
</svg>
